<?xml version="1.0" encoding="UTF-8"?>
<svg width="33px" height="33px" viewBox="0 0 33 33" version="1.1" xmlns="http://www.w3.org/2000/svg" xmlns:xlink="http://www.w3.org/1999/xlink">
    <!-- Generator: Sketch 48.2 (47327) - http://www.bohemiancoding.com/sketch -->
    <title>smile copy</title>
    <desc>Created with Sketch.</desc>
    <defs></defs>
    <g id="Webflow" stroke="none" stroke-width="1" fill="none" fill-rule="evenodd" transform="translate(-626.000000, -2263.000000)">
        <g id="parallax-1-+-parallax-1-copy-Mask" transform="translate(0.000000, 1219.000000)" fill="#58DF7F" fill-rule="nonzero">
            <g id="smile-copy" transform="translate(626.000000, 1044.000000)">
                <path d="M33,16.5 C33,25.6127238 25.6127238,33 16.5,33 C7.38727621,33 0,25.6127238 0,16.5 C0,7.38727621 7.38727621,0 16.5,0 C25.6127238,0 33,7.38727621 33,16.5 Z M24.8480685,21.5125403 C25.6117923,20.3312601 23.8268649,19.171004 23.0601472,20.3566089 C19.506127,25.8539698 13.4987964,25.8575625 9.94238105,20.3566089 C9.17712702,19.173 7.3899375,20.3299294 8.15445968,21.5125403 C12.5465202,28.3059496 20.4492883,28.3164617 24.8480685,21.5125403 Z M6.65322581,12.2419355 C6.65322581,14.7366956 8.68265927,16.766129 11.1774194,16.766129 C13.6721794,16.766129 15.7016129,14.7366956 15.7016129,12.2419355 C15.7016129,9.7471754 13.6721794,7.71774194 11.1774194,7.71774194 C8.68265927,7.71774194 6.65322581,9.7471754 6.65322581,12.2419355 Z M17.3316532,12.2419355 C17.3316532,14.7183327 19.3461835,16.7328629 21.8225806,16.7328629 C24.2989778,16.7328629 26.3135081,14.7183327 26.3135081,12.2419355 C26.3135081,9.76553831 24.2989778,7.75100806 21.8225806,7.75100806 C19.3461835,7.75100806 17.3316532,9.76553831 17.3316532,12.2419355 Z M21.8225806,9.0483871 C21.2979858,9.04764506 20.7813579,9.17671634 20.318752,9.42409476 L20.31975,9.42409476 C21.0460161,9.42409476 21.6347601,10.0128387 21.6347601,10.7391048 C21.6347601,11.465371 21.0460161,12.0541149 20.31975,12.0541149 C19.5934839,12.0541149 19.0047399,11.465371 19.0047399,10.7391048 L19.0047399,10.7381069 C18.7573615,11.2007127 18.6282902,11.7173407 18.6290323,12.2419355 C18.6290323,14.0057056 20.0588105,15.4354839 21.8225806,15.4354839 C23.5863508,15.4354839 25.016129,14.0057056 25.016129,12.2419355 C25.016129,10.4781653 23.5863508,9.0483871 21.8225806,9.0483871 Z M11.1774194,9.0483871 C10.6528245,9.04764506 10.1361966,9.17671634 9.67359073,9.42409476 L9.67458871,9.42409476 C10.4008548,9.42409476 10.9895988,10.0128387 10.9895988,10.7391048 C10.9895988,11.465371 10.4008548,12.0541149 9.67458871,12.0541149 C8.94832258,12.0541149 8.35957863,11.465371 8.35957863,10.7391048 L8.35957863,10.7381069 C8.11220021,11.2007127 7.98312893,11.7173407 7.98387097,12.2419355 C7.98387097,14.0057056 9.41364919,15.4354839 11.1774194,15.4354839 C12.9411895,15.4354839 14.3709677,14.0057056 14.3709677,12.2419355 C14.3709677,10.4781653 12.9411895,9.0483871 11.1774194,9.0483871 Z" id="Shape"></path>
            </g>
        </g>
    </g>
</svg>