<?xml version="1.0" encoding="UTF-8"?>
<svg width="34px" height="34px" viewBox="0 0 34 34" version="1.1" xmlns="http://www.w3.org/2000/svg" xmlns:xlink="http://www.w3.org/1999/xlink">
    <!-- Generator: Sketch 48.2 (47327) - http://www.bohemiancoding.com/sketch -->
    <title>Group 4</title>
    <desc>Created with Sketch.</desc>
    <defs></defs>
    <g id="Webflow" stroke="none" stroke-width="1" fill="none" fill-rule="evenodd" transform="translate(-762.000000, -4089.000000)">
        <g id="Group-4" transform="translate(762.000000, 4089.000000)">
            <circle id="Oval-5-Copy" fill="#F2F2F2" cx="17" cy="17" r="17"></circle>
            <g id="00ec-copy" transform="translate(17.000000, 17.000000) rotate(-90.000000) translate(-17.000000, -17.000000) translate(10.000000, 12.000000)" fill="#8C8A8A" fill-rule="nonzero">
                <path d="M1.20491803,0.2090301 L6.24590164,3.77090301 L6.26229508,3.77090301 C6.46448088,3.90468227 6.71038252,3.97157191 7,3.97157191 C7.1420765,3.97157191 7.27868852,3.95345596 7.40983607,3.91722408 C7.54098361,3.8809922 7.66666666,3.82107023 7.78688525,3.73745819 L12.795082,0.2090301 L12.8114754,0.225752508 C12.942623,0.0752508361 13.102459,0 13.2909836,0 C13.4795082,0 13.6448087,0.0724637709 13.7868852,0.217391304 C13.9289617,0.362318838 14,0.530936455 14,0.723244147 C14,0.915551839 13.9262295,1.07859532 13.7786885,1.21237458 L13.795082,1.22909699 L7.60655738,9.64046823 C7.47540984,9.88015608 7.27322404,10 7,10 C6.72677596,10 6.52459016,9.88015608 6.39344262,9.64046823 L0.204918033,1.22909699 L0.221311475,1.21237458 C0.144808746,1.14548495 0.0887978115,1.06884058 0.0532786885,0.982441472 C0.0177595656,0.896042366 0,0.808249724 0,0.719063545 C0,0.629877366 0.0177595656,0.540691196 0.0532786885,0.451505017 C0.0887978115,0.362318838 0.139344262,0.284280936 0.204918033,0.217391304 C0.275956287,0.144927533 0.355191254,0.0905797074 0.442622951,0.0543478261 C0.530054648,0.0181159448 0.617486336,0 0.704918033,0 C0.79234973,0 0.878415303,0.0195094732 0.963114754,0.0585284281 C1.0478142,0.0975473829 1.12295082,0.153288737 1.18852459,0.225752508 L1.20491803,0.2090301 Z" id="Shape"></path>
            </g>
        </g>
    </g>
</svg>